<?xml version='1.0' encoding='UTF-8' standalone='no'?>
<!-- Created with Fritzing (http://www.fritzing.org/) -->
<svg xmlns="http://www.w3.org/2000/svg"  viewBox="0 0 141.787 88.4203" width="1.96926in" baseProfile="tiny" x="0in" height="1.22806in" xmlns:svg="http://www.w3.org/2000/svg" version="1.2" y="0in">
 <g partID="57680">
  <g  id="board">
   <rect stroke-width="0.5"  stroke="black" fill="none" width="141.211" id="boardoutline" fill-opacity="0.5" height="87.8443" x="0.288" y="0.288"/>
  </g>
 </g>
 <g partID="60081">
  <g transform="translate(20.0001,81.5626)">
   <g transform="matrix(0,-1,1,0,0,0)">
    <g  id="copper1">
     <g  id="copper0">
      <circle stroke-width="1.224" cx="3.6"  stroke="black" fill="none" cy="10.8" id="connector16pad" r="1.908"/>
      <rect stroke-width="1.224"  stroke="black" fill="none" width="3.814" x="1.692" height="3.816" y="8.892"/>
      <circle stroke-width="1.224" cx="3.6"  stroke="black" fill="none" cy="18" id="connector17pad" r="1.908"/>
      <circle stroke-width="1.224" cx="3.6"  stroke="black" fill="none" cy="25.2" id="connector18pad" r="1.908"/>
      <circle stroke-width="1.224" cx="3.6"  stroke="black" fill="none" cy="32.4" id="connector19pad" r="1.908"/>
      <circle stroke-width="1.224" cx="3.6"  stroke="black" fill="none" cy="39.6" id="connector20pad" r="1.908"/>
      <circle stroke-width="1.224" cx="3.6"  stroke="black" fill="none" cy="46.8" id="connector21pad" r="1.908"/>
      <circle stroke-width="1.224" cx="3.6"  stroke="black" fill="none" cy="54" id="connector22pad" r="1.908"/>
      <circle stroke-width="1.224" cx="3.6"  stroke="black" fill="none" cy="61.2" id="connector23pad" r="1.908"/>
      <circle stroke-width="1.224" cx="3.6"  stroke="black" fill="none" cy="68.4" id="connector24pad" r="1.908"/>
      <circle stroke-width="1.224" cx="3.6"  stroke="black" fill="none" cy="75.6" id="connector25pad" r="1.908"/>
      <circle stroke-width="1.224" cx="3.6"  stroke="black" fill="none" cy="82.8" id="connector26pad" r="1.908"/>
      <circle stroke-width="1.224" cx="3.6"  stroke="black" fill="none" cy="90" id="connector27pad" r="1.908"/>
      <circle stroke-width="1.224" cx="3.6"  stroke="black" fill="none" cy="97.2" id="connector28pad" r="1.908"/>
      <circle stroke-width="1.224" cx="3.6"  stroke="black" fill="none" cy="104.4" id="connector29pad" r="1.908"/>
      <circle stroke-width="1.224" cx="3.6"  stroke="black" fill="none" cy="111.6" id="connector30pad" r="1.908"/>
      <circle stroke-width="1.224" cx="46.8"  stroke="black" fill="none" cy="10.8" id="connector31pad" r="1.908"/>
      <circle stroke-width="1.224" cx="46.8"  stroke="black" fill="none" cy="18" id="connector32pad" r="1.908"/>
      <circle stroke-width="1.224" cx="46.8"  stroke="black" fill="none" cy="25.2" id="connector33pad" r="1.908"/>
      <circle stroke-width="1.224" cx="46.8"  stroke="black" fill="none" cy="32.4" id="connector34pad" r="1.908"/>
      <circle stroke-width="1.224" cx="46.8"  stroke="black" fill="none" cy="39.6" id="connector35pad" r="1.908"/>
      <circle stroke-width="1.224" cx="46.8"  stroke="black" fill="none" cy="46.8" id="connector36pad" r="1.908"/>
      <circle stroke-width="1.224" cx="46.8"  stroke="black" fill="none" cy="54" id="connector37pad" r="1.908"/>
      <circle stroke-width="1.224" cx="46.8"  stroke="black" fill="none" cy="61.2" id="connector38pad" r="1.908"/>
      <circle stroke-width="1.224" cx="46.8"  stroke="black" fill="none" cy="68.4" id="connector39pad" r="1.908"/>
      <circle stroke-width="1.224" cx="46.8"  stroke="black" fill="none" cy="75.6" id="connector40pad" r="1.908"/>
      <circle stroke-width="1.224" cx="46.8"  stroke="black" fill="none" cy="82.8" id="connector41pad" r="1.908"/>
      <circle stroke-width="1.224" cx="46.8"  stroke="black" fill="none" cy="90" id="connector42pad" r="1.908"/>
      <circle stroke-width="1.224" cx="46.8"  stroke="black" fill="none" cy="97.2" id="connector43pad" r="1.908"/>
      <circle stroke-width="1.224" cx="46.8"  stroke="black" fill="none" cy="104.4" id="connector44pad" r="1.908"/>
      <circle stroke-width="1.224" cx="46.8"  stroke="black" fill="none" cy="111.6" id="connector45pad" r="1.908"/>
     </g>
    </g>
   </g>
  </g>
 </g>
 <g partID="59941">
  <g transform="translate(3.60249,88.3682)">
   <g transform="matrix(0,-1,1,0,0,0)">
    <g  id="copper1">
     <circle stroke-width="1.224" cx="28.2376"  stroke="black" fill="none" cy="11.5132" id="connector6pad" connectorname="5" r="2.052"/>
     <path stroke-width="0"  d="m25.5736,8.84919,5.32801,0,0,5.32799,-5.32801,0,0,-5.32799zM26.7976,11.5132a1.44,1.44,0,1,0,2.88,0,1.44,1.44,0,1,0,-2.88,0z" stroke="none" fill="black"/>
     <circle stroke-width="1.224" cx="36.0896"  stroke="black" fill="none" cy="11.5132" id="connector5pad" connectorname="4" r="2.052"/>
     <circle stroke-width="1.224" cx="43.9416"  stroke="black" fill="none" cy="11.5132" id="connector4pad" connectorname="3" r="2.052"/>
     <circle stroke-width="1.224" cx="51.7936"  stroke="black" fill="none" cy="11.5132" id="connector3pad" connectorname="2" r="2.052"/>
     <circle stroke-width="1.224" cx="59.6456"  stroke="black" fill="none" cy="11.5132" id="connector1pad" connectorname="1" r="2.052"/>
     <circle stroke-width="1.224" cx="32.1778"  stroke="black" fill="none" cy="3.4628" id="connector10pad" connectorname="9" r="2.052"/>
     <circle stroke-width="1.224" cx="40.0298"  stroke="black" fill="none" cy="3.4628" id="connector9pad" connectorname="8" r="2.052"/>
     <circle stroke-width="1.224" cx="47.8534"  stroke="black" fill="none" cy="3.4628" id="connector8pad" connectorname="7" r="2.052"/>
     <circle stroke-width="1.224" cx="55.7054"  stroke="black" fill="none" cy="3.4628" id="connector7pad" connectorname="6" r="2.052"/>
     <circle stroke-width="2.52" cx="8.50848"  stroke="black" fill="none" cy="7.48799" id="connector0pad" connectorname="G1" r="5.94001"/>
     <circle stroke-width="2.52" cx="79.3747"  stroke="black" fill="none" cy="7.48799" id="connector2pad" connectorname="G2" r="5.94001"/>
     <g  id="copper0">
      <circle stroke-width="1.224" cx="28.2376"  stroke="black" fill="none" cy="11.5132" id="connector6pad" connectorname="5" r="2.052"/>
      <path stroke-width="0"  d="m25.5736,8.84919,5.32801,0,0,5.32799,-5.32801,0,0,-5.32799zM26.7976,11.5132a1.44,1.44,0,1,0,2.88,0,1.44,1.44,0,1,0,-2.88,0z" stroke="none" fill="black"/>
      <circle stroke-width="1.224" cx="36.0896"  stroke="black" fill="none" cy="11.5132" id="connector5pad" connectorname="4" r="2.052"/>
      <circle stroke-width="1.224" cx="43.9416"  stroke="black" fill="none" cy="11.5132" id="connector4pad" connectorname="3" r="2.052"/>
      <circle stroke-width="1.224" cx="51.7936"  stroke="black" fill="none" cy="11.5132" id="connector3pad" connectorname="2" r="2.052"/>
      <circle stroke-width="1.224" cx="59.6456"  stroke="black" fill="none" cy="11.5132" id="connector1pad" connectorname="1" r="2.052"/>
      <circle stroke-width="1.224" cx="32.1778"  stroke="black" fill="none" cy="3.4628" id="connector10pad" connectorname="9" r="2.052"/>
      <circle stroke-width="1.224" cx="40.0298"  stroke="black" fill="none" cy="3.4628" id="connector9pad" connectorname="8" r="2.052"/>
      <circle stroke-width="1.224" cx="47.8534"  stroke="black" fill="none" cy="3.4628" id="connector8pad" connectorname="7" r="2.052"/>
      <circle stroke-width="1.224" cx="55.7054"  stroke="black" fill="none" cy="3.4628" id="connector7pad" connectorname="6" r="2.052"/>
      <circle stroke-width="2.52" cx="8.50848"  stroke="black" fill="none" cy="7.48799" id="connector0pad" connectorname="G1" r="5.94001"/>
      <circle stroke-width="2.52" cx="79.3747"  stroke="black" fill="none" cy="7.48799" id="connector2pad" connectorname="G2" r="5.94001"/>
     </g>
    </g>
   </g>
  </g>
 </g>
 <g partID="854144741">
  <g transform="translate(53.5594,0.838775)">
   <g  id="copper1">
    <circle stroke-width="0.72" cx="6.048"  stroke="black" fill="none" cy="25.7896" id="connector0pad" connectorname="1" r="1.7348"/>
    <path stroke-width="0"  d="m6.048,21.6a2.0948,2.0948,0,0,1,2.0948,2.0948l0,4.18961a2.0948,2.0948,0,0,1,-2.0948,2.0948l0,0a2.0948,2.0948,0,0,1,-2.0948,-2.0948l0,-4.18961a2.0948,2.0948,0,0,1,2.0948,-2.0948l0,0zM4.6732,25.7896a1.3748,1.3748,0,1,0,2.74961,0,1.3748,1.3748,0,1,0,-2.74961,0z" stroke="none" fill="black"/>
    <circle stroke-width="0.72" cx="13.248"  stroke="black" fill="none" cy="25.7896" id="connector1pad" connectorname="2" r="1.7348"/>
    <path stroke-width="0"  d="m13.248,21.6a2.0948,2.0948,0,0,1,2.0948,2.0948l0,4.18961a2.0948,2.0948,0,0,1,-2.0948,2.0948l0,0a2.0948,2.0948,0,0,1,-2.0948,-2.0948l0,-4.18961a2.0948,2.0948,0,0,1,2.0948,-2.0948l0,0zM11.8732,25.7896a1.3748,1.3748,0,1,0,2.74961,0,1.3748,1.3748,0,1,0,-2.74961,0z" stroke="none" fill="black"/>
    <circle stroke-width="0.72" cx="49.248"  stroke="black" fill="none" cy="25.7896" id="connector6pad" connectorname="7" r="1.7348"/>
    <path stroke-width="0"  d="m49.248,21.6a2.0948,2.0948,0,0,1,2.0948,2.0948l0,4.18961a2.0948,2.0948,0,0,1,-2.0948,2.0948l0,0a2.0948,2.0948,0,0,1,-2.0948,-2.0948l0,-4.18961a2.0948,2.0948,0,0,1,2.0948,-2.0948l0,0zM47.8732,25.7896a1.3748,1.3748,0,1,0,2.74961,0,1.3748,1.3748,0,1,0,-2.74961,0z" stroke="none" fill="black"/>
    <circle stroke-width="0.72" cx="56.448"  stroke="black" fill="none" cy="25.7896" id="connector7pad" connectorname="8" r="1.7348"/>
    <path stroke-width="0"  d="m56.448,21.6a2.0948,2.0948,0,0,1,2.0948,2.0948l0,4.18961a2.0948,2.0948,0,0,1,-2.0948,2.0948l0,0a2.0948,2.0948,0,0,1,-2.0948,-2.0948l0,-4.18961a2.0948,2.0948,0,0,1,2.0948,-2.0948l0,0zM55.0732,25.7896a1.3748,1.3748,0,1,0,2.74961,0,1.3748,1.3748,0,1,0,-2.74961,0z" stroke="none" fill="black"/>
    <circle stroke-width="0.72" cx="20.448"  stroke="black" fill="none" cy="25.7896" id="connector2pad" connectorname="3" r="1.7348"/>
    <path stroke-width="0"  d="m20.448,21.6a2.0948,2.0948,0,0,1,2.0948,2.0948l0,4.18961a2.0948,2.0948,0,0,1,-2.0948,2.0948l0,0a2.0948,2.0948,0,0,1,-2.0948,-2.0948l0,-4.18961a2.0948,2.0948,0,0,1,2.0948,-2.0948l0,0zM19.0732,25.7896a1.3748,1.3748,0,1,0,2.74961,0,1.3748,1.3748,0,1,0,-2.74961,0z" stroke="none" fill="black"/>
    <circle stroke-width="0.72" cx="27.648"  stroke="black" fill="none" cy="25.7896" id="connector3pad" connectorname="4" r="1.7348"/>
    <path stroke-width="0"  d="m27.648,21.6a2.0948,2.0948,0,0,1,2.0948,2.0948l0,4.18961a2.0948,2.0948,0,0,1,-2.0948,2.0948l0,0a2.0948,2.0948,0,0,1,-2.0948,-2.0948l0,-4.18961a2.0948,2.0948,0,0,1,2.0948,-2.0948l0,0zM26.2732,25.7896a1.3748,1.3748,0,1,0,2.74961,0,1.3748,1.3748,0,1,0,-2.74961,0z" stroke="none" fill="black"/>
    <circle stroke-width="0.72" cx="42.048"  stroke="black" fill="none" cy="25.7896" id="connector5pad" connectorname="6" r="1.7348"/>
    <path stroke-width="0"  d="m42.048,21.6a2.0948,2.0948,0,0,1,2.0948,2.0948l0,4.18961a2.0948,2.0948,0,0,1,-2.0948,2.0948l0,0a2.0948,2.0948,0,0,1,-2.0948,-2.0948l0,-4.18961a2.0948,2.0948,0,0,1,2.0948,-2.0948l0,0zM40.6732,25.7896a1.3748,1.3748,0,1,0,2.74961,0,1.3748,1.3748,0,1,0,-2.74961,0z" stroke="none" fill="black"/>
    <circle stroke-width="0.72" cx="34.848"  stroke="black" fill="none" cy="25.7896" id="connector4pad" connectorname="5" r="1.7348"/>
    <path stroke-width="0"  d="m34.848,21.6a2.0948,2.0948,0,0,1,2.0948,2.0948l0,4.18961a2.0948,2.0948,0,0,1,-2.0948,2.0948l0,0a2.0948,2.0948,0,0,1,-2.0948,-2.0948l0,-4.18961a2.0948,2.0948,0,0,1,2.0948,-2.0948l0,0zM33.4732,25.7896a1.3748,1.3748,0,1,0,2.74961,0,1.3748,1.3748,0,1,0,-2.74961,0z" stroke="none" fill="black"/>
    <circle stroke-width="0.72" cx="56.448"  stroke="black" fill="none" cy="4.18961" id="connector8pad" connectorname="9" r="1.7348"/>
    <path stroke-width="0"  d="m56.448,0a2.0948,2.0948,0,0,1,2.0948,2.0948l0,4.18961a2.0948,2.0948,0,0,1,-2.0948,2.0948l0,0a2.0948,2.0948,0,0,1,-2.0948,-2.0948l0,-4.18961a2.0948,2.0948,0,0,1,2.0948,-2.0948l0,0zM55.0732,4.18961a1.3748,1.3748,0,1,0,2.74961,0,1.3748,1.3748,0,1,0,-2.74961,0z" stroke="none" fill="black"/>
    <circle stroke-width="0.72" cx="49.248"  stroke="black" fill="none" cy="4.18961" id="connector9pad" connectorname="10" r="1.7348"/>
    <path stroke-width="0"  d="m49.248,0a2.0948,2.0948,0,0,1,2.0948,2.0948l0,4.18961a2.0948,2.0948,0,0,1,-2.0948,2.0948l0,0a2.0948,2.0948,0,0,1,-2.0948,-2.0948l0,-4.18961a2.0948,2.0948,0,0,1,2.0948,-2.0948l0,0zM47.8732,4.18961a1.3748,1.3748,0,1,0,2.74961,0,1.3748,1.3748,0,1,0,-2.74961,0z" stroke="none" fill="black"/>
    <circle stroke-width="0.72" cx="42.048"  stroke="black" fill="none" cy="4.18961" id="connector10pad" connectorname="11" r="1.7348"/>
    <path stroke-width="0"  d="m42.048,0a2.0948,2.0948,0,0,1,2.0948,2.0948l0,4.18961a2.0948,2.0948,0,0,1,-2.0948,2.0948l0,0a2.0948,2.0948,0,0,1,-2.0948,-2.0948l0,-4.18961a2.0948,2.0948,0,0,1,2.0948,-2.0948l0,0zM40.6732,4.18961a1.3748,1.3748,0,1,0,2.74961,0,1.3748,1.3748,0,1,0,-2.74961,0z" stroke="none" fill="black"/>
    <circle stroke-width="0.72" cx="34.848"  stroke="black" fill="none" cy="4.18961" id="connector11pad" connectorname="12" r="1.7348"/>
    <path stroke-width="0"  d="m34.848,0a2.0948,2.0948,0,0,1,2.0948,2.0948l0,4.18961a2.0948,2.0948,0,0,1,-2.0948,2.0948l0,0a2.0948,2.0948,0,0,1,-2.0948,-2.0948l0,-4.18961a2.0948,2.0948,0,0,1,2.0948,-2.0948l0,0zM33.4732,4.18961a1.3748,1.3748,0,1,0,2.74961,0,1.3748,1.3748,0,1,0,-2.74961,0z" stroke="none" fill="black"/>
    <circle stroke-width="0.72" cx="27.648"  stroke="black" fill="none" cy="4.18961" id="connector12pad" connectorname="13" r="1.7348"/>
    <path stroke-width="0"  d="m27.648,0a2.0948,2.0948,0,0,1,2.0948,2.0948l0,4.18961a2.0948,2.0948,0,0,1,-2.0948,2.0948l0,0a2.0948,2.0948,0,0,1,-2.0948,-2.0948l0,-4.18961a2.0948,2.0948,0,0,1,2.0948,-2.0948l0,0zM26.2732,4.18961a1.3748,1.3748,0,1,0,2.74961,0,1.3748,1.3748,0,1,0,-2.74961,0z" stroke="none" fill="black"/>
    <circle stroke-width="0.72" cx="20.448"  stroke="black" fill="none" cy="4.18961" id="connector13pad" connectorname="14" r="1.7348"/>
    <path stroke-width="0"  d="m20.448,0a2.0948,2.0948,0,0,1,2.0948,2.0948l0,4.18961a2.0948,2.0948,0,0,1,-2.0948,2.0948l0,0a2.0948,2.0948,0,0,1,-2.0948,-2.0948l0,-4.18961a2.0948,2.0948,0,0,1,2.0948,-2.0948l0,0zM19.0732,4.18961a1.3748,1.3748,0,1,0,2.74961,0,1.3748,1.3748,0,1,0,-2.74961,0z" stroke="none" fill="black"/>
    <circle stroke-width="0.72" cx="13.248"  stroke="black" fill="none" cy="4.18961" id="connector14pad" connectorname="15" r="1.7348"/>
    <path stroke-width="0"  d="m13.248,0a2.0948,2.0948,0,0,1,2.0948,2.0948l0,4.18961a2.0948,2.0948,0,0,1,-2.0948,2.0948l0,0a2.0948,2.0948,0,0,1,-2.0948,-2.0948l0,-4.18961a2.0948,2.0948,0,0,1,2.0948,-2.0948l0,0zM11.8732,4.18961a1.3748,1.3748,0,1,0,2.74961,0,1.3748,1.3748,0,1,0,-2.74961,0z" stroke="none" fill="black"/>
    <circle stroke-width="0.72" cx="6.048"  stroke="black" fill="none" cy="4.18961" id="connector15pad" connectorname="16" r="1.7348"/>
    <path stroke-width="0"  d="m6.048,0a2.0948,2.0948,0,0,1,2.0948,2.0948l0,4.18961a2.0948,2.0948,0,0,1,-2.0948,2.0948l0,0a2.0948,2.0948,0,0,1,-2.0948,-2.0948l0,-4.18961a2.0948,2.0948,0,0,1,2.0948,-2.0948l0,0zM4.6732,4.18961a1.3748,1.3748,0,1,0,2.74961,0,1.3748,1.3748,0,1,0,-2.74961,0z" stroke="none" fill="black"/>
    <g  id="copper0">
     <circle stroke-width="0.72" cx="6.048"  stroke="black" fill="none" cy="25.7896" id="connector0pad" connectorname="1" r="1.7348"/>
     <path stroke-width="0"  d="m6.048,21.6a2.0948,2.0948,0,0,1,2.0948,2.0948l0,4.18961a2.0948,2.0948,0,0,1,-2.0948,2.0948l0,0a2.0948,2.0948,0,0,1,-2.0948,-2.0948l0,-4.18961a2.0948,2.0948,0,0,1,2.0948,-2.0948l0,0zM4.6732,25.7896a1.3748,1.3748,0,1,0,2.74961,0,1.3748,1.3748,0,1,0,-2.74961,0z" stroke="none" fill="black"/>
     <circle stroke-width="0.72" cx="13.248"  stroke="black" fill="none" cy="25.7896" id="connector1pad" connectorname="2" r="1.7348"/>
     <path stroke-width="0"  d="m13.248,21.6a2.0948,2.0948,0,0,1,2.0948,2.0948l0,4.18961a2.0948,2.0948,0,0,1,-2.0948,2.0948l0,0a2.0948,2.0948,0,0,1,-2.0948,-2.0948l0,-4.18961a2.0948,2.0948,0,0,1,2.0948,-2.0948l0,0zM11.8732,25.7896a1.3748,1.3748,0,1,0,2.74961,0,1.3748,1.3748,0,1,0,-2.74961,0z" stroke="none" fill="black"/>
     <circle stroke-width="0.72" cx="49.248"  stroke="black" fill="none" cy="25.7896" id="connector6pad" connectorname="7" r="1.7348"/>
     <path stroke-width="0"  d="m49.248,21.6a2.0948,2.0948,0,0,1,2.0948,2.0948l0,4.18961a2.0948,2.0948,0,0,1,-2.0948,2.0948l0,0a2.0948,2.0948,0,0,1,-2.0948,-2.0948l0,-4.18961a2.0948,2.0948,0,0,1,2.0948,-2.0948l0,0zM47.8732,25.7896a1.3748,1.3748,0,1,0,2.74961,0,1.3748,1.3748,0,1,0,-2.74961,0z" stroke="none" fill="black"/>
     <circle stroke-width="0.72" cx="56.448"  stroke="black" fill="none" cy="25.7896" id="connector7pad" connectorname="8" r="1.7348"/>
     <path stroke-width="0"  d="m56.448,21.6a2.0948,2.0948,0,0,1,2.0948,2.0948l0,4.18961a2.0948,2.0948,0,0,1,-2.0948,2.0948l0,0a2.0948,2.0948,0,0,1,-2.0948,-2.0948l0,-4.18961a2.0948,2.0948,0,0,1,2.0948,-2.0948l0,0zM55.0732,25.7896a1.3748,1.3748,0,1,0,2.74961,0,1.3748,1.3748,0,1,0,-2.74961,0z" stroke="none" fill="black"/>
     <circle stroke-width="0.72" cx="20.448"  stroke="black" fill="none" cy="25.7896" id="connector2pad" connectorname="3" r="1.7348"/>
     <path stroke-width="0"  d="m20.448,21.6a2.0948,2.0948,0,0,1,2.0948,2.0948l0,4.18961a2.0948,2.0948,0,0,1,-2.0948,2.0948l0,0a2.0948,2.0948,0,0,1,-2.0948,-2.0948l0,-4.18961a2.0948,2.0948,0,0,1,2.0948,-2.0948l0,0zM19.0732,25.7896a1.3748,1.3748,0,1,0,2.74961,0,1.3748,1.3748,0,1,0,-2.74961,0z" stroke="none" fill="black"/>
     <circle stroke-width="0.72" cx="27.648"  stroke="black" fill="none" cy="25.7896" id="connector3pad" connectorname="4" r="1.7348"/>
     <path stroke-width="0"  d="m27.648,21.6a2.0948,2.0948,0,0,1,2.0948,2.0948l0,4.18961a2.0948,2.0948,0,0,1,-2.0948,2.0948l0,0a2.0948,2.0948,0,0,1,-2.0948,-2.0948l0,-4.18961a2.0948,2.0948,0,0,1,2.0948,-2.0948l0,0zM26.2732,25.7896a1.3748,1.3748,0,1,0,2.74961,0,1.3748,1.3748,0,1,0,-2.74961,0z" stroke="none" fill="black"/>
     <circle stroke-width="0.72" cx="42.048"  stroke="black" fill="none" cy="25.7896" id="connector5pad" connectorname="6" r="1.7348"/>
     <path stroke-width="0"  d="m42.048,21.6a2.0948,2.0948,0,0,1,2.0948,2.0948l0,4.18961a2.0948,2.0948,0,0,1,-2.0948,2.0948l0,0a2.0948,2.0948,0,0,1,-2.0948,-2.0948l0,-4.18961a2.0948,2.0948,0,0,1,2.0948,-2.0948l0,0zM40.6732,25.7896a1.3748,1.3748,0,1,0,2.74961,0,1.3748,1.3748,0,1,0,-2.74961,0z" stroke="none" fill="black"/>
     <circle stroke-width="0.72" cx="34.848"  stroke="black" fill="none" cy="25.7896" id="connector4pad" connectorname="5" r="1.7348"/>
     <path stroke-width="0"  d="m34.848,21.6a2.0948,2.0948,0,0,1,2.0948,2.0948l0,4.18961a2.0948,2.0948,0,0,1,-2.0948,2.0948l0,0a2.0948,2.0948,0,0,1,-2.0948,-2.0948l0,-4.18961a2.0948,2.0948,0,0,1,2.0948,-2.0948l0,0zM33.4732,25.7896a1.3748,1.3748,0,1,0,2.74961,0,1.3748,1.3748,0,1,0,-2.74961,0z" stroke="none" fill="black"/>
     <circle stroke-width="0.72" cx="56.448"  stroke="black" fill="none" cy="4.18961" id="connector8pad" connectorname="9" r="1.7348"/>
     <path stroke-width="0"  d="m56.448,0a2.0948,2.0948,0,0,1,2.0948,2.0948l0,4.18961a2.0948,2.0948,0,0,1,-2.0948,2.0948l0,0a2.0948,2.0948,0,0,1,-2.0948,-2.0948l0,-4.18961a2.0948,2.0948,0,0,1,2.0948,-2.0948l0,0zM55.0732,4.18961a1.3748,1.3748,0,1,0,2.74961,0,1.3748,1.3748,0,1,0,-2.74961,0z" stroke="none" fill="black"/>
     <circle stroke-width="0.72" cx="49.248"  stroke="black" fill="none" cy="4.18961" id="connector9pad" connectorname="10" r="1.7348"/>
     <path stroke-width="0"  d="m49.248,0a2.0948,2.0948,0,0,1,2.0948,2.0948l0,4.18961a2.0948,2.0948,0,0,1,-2.0948,2.0948l0,0a2.0948,2.0948,0,0,1,-2.0948,-2.0948l0,-4.18961a2.0948,2.0948,0,0,1,2.0948,-2.0948l0,0zM47.8732,4.18961a1.3748,1.3748,0,1,0,2.74961,0,1.3748,1.3748,0,1,0,-2.74961,0z" stroke="none" fill="black"/>
     <circle stroke-width="0.72" cx="42.048"  stroke="black" fill="none" cy="4.18961" id="connector10pad" connectorname="11" r="1.7348"/>
     <path stroke-width="0"  d="m42.048,0a2.0948,2.0948,0,0,1,2.0948,2.0948l0,4.18961a2.0948,2.0948,0,0,1,-2.0948,2.0948l0,0a2.0948,2.0948,0,0,1,-2.0948,-2.0948l0,-4.18961a2.0948,2.0948,0,0,1,2.0948,-2.0948l0,0zM40.6732,4.18961a1.3748,1.3748,0,1,0,2.74961,0,1.3748,1.3748,0,1,0,-2.74961,0z" stroke="none" fill="black"/>
     <circle stroke-width="0.72" cx="34.848"  stroke="black" fill="none" cy="4.18961" id="connector11pad" connectorname="12" r="1.7348"/>
     <path stroke-width="0"  d="m34.848,0a2.0948,2.0948,0,0,1,2.0948,2.0948l0,4.18961a2.0948,2.0948,0,0,1,-2.0948,2.0948l0,0a2.0948,2.0948,0,0,1,-2.0948,-2.0948l0,-4.18961a2.0948,2.0948,0,0,1,2.0948,-2.0948l0,0zM33.4732,4.18961a1.3748,1.3748,0,1,0,2.74961,0,1.3748,1.3748,0,1,0,-2.74961,0z" stroke="none" fill="black"/>
     <circle stroke-width="0.72" cx="27.648"  stroke="black" fill="none" cy="4.18961" id="connector12pad" connectorname="13" r="1.7348"/>
     <path stroke-width="0"  d="m27.648,0a2.0948,2.0948,0,0,1,2.0948,2.0948l0,4.18961a2.0948,2.0948,0,0,1,-2.0948,2.0948l0,0a2.0948,2.0948,0,0,1,-2.0948,-2.0948l0,-4.18961a2.0948,2.0948,0,0,1,2.0948,-2.0948l0,0zM26.2732,4.18961a1.3748,1.3748,0,1,0,2.74961,0,1.3748,1.3748,0,1,0,-2.74961,0z" stroke="none" fill="black"/>
     <circle stroke-width="0.72" cx="20.448"  stroke="black" fill="none" cy="4.18961" id="connector13pad" connectorname="14" r="1.7348"/>
     <path stroke-width="0"  d="m20.448,0a2.0948,2.0948,0,0,1,2.0948,2.0948l0,4.18961a2.0948,2.0948,0,0,1,-2.0948,2.0948l0,0a2.0948,2.0948,0,0,1,-2.0948,-2.0948l0,-4.18961a2.0948,2.0948,0,0,1,2.0948,-2.0948l0,0zM19.0732,4.18961a1.3748,1.3748,0,1,0,2.74961,0,1.3748,1.3748,0,1,0,-2.74961,0z" stroke="none" fill="black"/>
     <circle stroke-width="0.72" cx="13.248"  stroke="black" fill="none" cy="4.18961" id="connector14pad" connectorname="15" r="1.7348"/>
     <path stroke-width="0"  d="m13.248,0a2.0948,2.0948,0,0,1,2.0948,2.0948l0,4.18961a2.0948,2.0948,0,0,1,-2.0948,2.0948l0,0a2.0948,2.0948,0,0,1,-2.0948,-2.0948l0,-4.18961a2.0948,2.0948,0,0,1,2.0948,-2.0948l0,0zM11.8732,4.18961a1.3748,1.3748,0,1,0,2.74961,0,1.3748,1.3748,0,1,0,-2.74961,0z" stroke="none" fill="black"/>
     <circle stroke-width="0.72" cx="6.048"  stroke="black" fill="none" cy="4.18961" id="connector15pad" connectorname="16" r="1.7348"/>
     <path stroke-width="0"  d="m6.048,0a2.0948,2.0948,0,0,1,2.0948,2.0948l0,4.18961a2.0948,2.0948,0,0,1,-2.0948,2.0948l0,0a2.0948,2.0948,0,0,1,-2.0948,-2.0948l0,-4.18961a2.0948,2.0948,0,0,1,2.0948,-2.0948l0,0zM4.6732,4.18961a1.3748,1.3748,0,1,0,2.74961,0,1.3748,1.3748,0,1,0,-2.74961,0z" stroke="none" fill="black"/>
    </g>
   </g>
  </g>
 </g>
 <g partID="854211001">
  <g transform="translate(2.46677,18.6973)">
   <g  id="copper1">
    <circle stroke-width="0.850392" cx="3.01732"  stroke="black" fill="none" cy="3.01732" id="connector0pin" r="0.992124"/>
   </g>
  </g>
 </g>
 <g partID="854211301">
  <g transform="translate(35.2988,37.7053)">
   <g  id="copper1">
    <circle stroke-width="0.850392" cx="3.01732"  stroke="black" fill="none" cy="3.01732" id="connector0pin" r="0.992124"/>
   </g>
  </g>
 </g>
 <g partID="854211401">
  <g transform="translate(24.9308,25.6093)">
   <g  id="copper1">
    <circle stroke-width="0.850392" cx="3.01732"  stroke="black" fill="none" cy="3.01732" id="connector0pin" r="0.992124"/>
   </g>
  </g>
 </g>
 <g partID="854191500">
  <line x2="38.762" stroke-width="1.728" stroke-linecap="round" x1="58.7992" y1="6.14055" stroke="black" y2="33.7142"/>
 </g>
 <g partID="854209140">
  <line x2="59.0521" stroke-width="1.728" stroke-linecap="round" x1="59.3405" y1="76.6929" stroke="black" y2="75.2826"/>
 </g>
 <g partID="854209160">
  <line x2="16.104" stroke-width="1.728" stroke-linecap="round" x1="59.0521" y1="75.2826" stroke="black" y2="29.7699"/>
 </g>
 <g partID="854209780">
  <line x2="52.1401" stroke-width="1.728" stroke-linecap="round" x1="16.1345" y1="37.5922" stroke="black" y2="73.5546"/>
 </g>
 <g partID="854209900">
  <line x2="26.2201" stroke-width="1.728" stroke-linecap="round" x1="52.1401" y1="73.5546" stroke="black" y2="73.5546"/>
 </g>
 <g partID="854209920">
  <line x2="26.2201" stroke-width="1.728" stroke-linecap="round" x1="26.2201" y1="73.5546" stroke="black" y2="82.1946"/>
 </g>
 <g partID="854209940">
  <line x2="64.2361" stroke-width="1.728" stroke-linecap="round" x1="26.2201" y1="82.1946" stroke="black" y2="82.1946"/>
 </g>
 <g partID="854209960">
  <line x2="66.1286" stroke-width="1.728" stroke-linecap="round" x1="64.2361" y1="82.1946" stroke="black" y2="79.071"/>
 </g>
 <g partID="854210040">
  <line x2="40.0441" stroke-width="1.728" stroke-linecap="round" x1="16.1188" y1="45.4597" stroke="black" y2="70.0986"/>
 </g>
 <g partID="854210140">
  <line x2="22.7641" stroke-width="1.728" stroke-linecap="round" x1="40.0441" y1="70.0986" stroke="black" y2="70.0986"/>
 </g>
 <g partID="854210160">
  <line x2="22.7641" stroke-width="1.728" stroke-linecap="round" x1="22.7641" y1="70.0986" stroke="black" y2="85.6506"/>
 </g>
 <g partID="854210180">
  <line x2="67.6921" stroke-width="1.728" stroke-linecap="round" x1="22.7641" y1="85.6506" stroke="black" y2="85.6506"/>
 </g>
 <g partID="854210200">
  <line x2="73.1782" stroke-width="1.728" stroke-linecap="round" x1="67.6921" y1="85.6506" stroke="black" y2="78.9645"/>
 </g>
 <g partID="854211020">
  <line x2="2.02809" stroke-width="1.728" stroke-linecap="round" x1="5.23055" y1="22.2217" stroke="black" y2="28.6266"/>
 </g>
 <g partID="854211060">
  <line x2="2.02809" stroke-width="1.728" stroke-linecap="round" x1="2.02809" y1="28.6266" stroke="black" y2="45.9066"/>
 </g>
 <g partID="854211080">
  <line x2="5.7685" stroke-width="1.728" stroke-linecap="round" x1="2.02809" y1="45.9066" stroke="black" y2="47.7124"/>
 </g>
 <g partID="854211120">
  <line x2="66.0183" stroke-width="1.728" stroke-linecap="round" x1="94.5116" y1="77.2595" stroke="black" y2="58.8587"/>
 </g>
 <g partID="854211140">
  <line x2="38.7904" stroke-width="1.728" stroke-linecap="round" x1="66.0183" y1="58.8587" stroke="black" y2="41.0331"/>
 </g>
 <g partID="854211420">
  <line x2="27.9481" stroke-width="1.728" stroke-linecap="round" x1="27.9481" y1="28.0597" stroke="black" y2="23.4426"/>
 </g>
 <g partID="854211440">
  <line x2="10.6681" stroke-width="1.728" stroke-linecap="round" x1="27.9481" y1="23.4426" stroke="black" y2="23.4426"/>
 </g>
 <g partID="854211460">
  <line x2="7.58938" stroke-width="1.728" stroke-linecap="round" x1="10.6681" y1="23.4426" stroke="black" y2="31.3215"/>
 </g>
 <g partID="854215880">
  <line x2="82.5822" stroke-width="1.728" stroke-linecap="round" x1="87.0326" y1="5.02838" stroke="black" y2="5.02838"/>
 </g>
 <g partID="854216010">
  <line x2="60.9822" stroke-width="1.728" stroke-linecap="round" x1="65.4326" y1="5.02838" stroke="black" y2="5.02838"/>
 </g>
 <g partID="854216080">
  <line x2="68.1822" stroke-width="1.728" stroke-linecap="round" x1="72.6326" y1="5.02838" stroke="black" y2="5.02838"/>
 </g>
 <g partID="854216150">
  <line x2="75.3822" stroke-width="1.728" stroke-linecap="round" x1="79.8326" y1="5.02838" stroke="black" y2="5.02838"/>
 </g>
 <g partID="854216360">
  <line x2="89.7822" stroke-width="1.728" stroke-linecap="round" x1="94.2326" y1="5.02838" stroke="black" y2="5.02838"/>
 </g>
 <g partID="854216570">
  <line x2="96.9822" stroke-width="1.728" stroke-linecap="round" x1="101.433" y1="5.02838" stroke="black" y2="5.02838"/>
 </g>
 <g partID="854216780">
  <line x2="104.182" stroke-width="1.728" stroke-linecap="round" x1="108.633" y1="5.02838" stroke="black" y2="5.02838"/>
 </g>
 <g partID="854216990">
  <line x2="110.006" stroke-width="1.728" stroke-linecap="round" x1="110.001" y1="33.4666" stroke="black" y2="28.0032"/>
 </g>
 <g partID="854217020">
  <line x2="102.806" stroke-width="1.728" stroke-linecap="round" x1="102.801" y1="33.4666" stroke="black" y2="28.0032"/>
 </g>
 <g partID="854217050">
  <line x2="95.6062" stroke-width="1.728" stroke-linecap="round" x1="95.6014" y1="33.4666" stroke="black" y2="28.0032"/>
 </g>
 <g partID="854217080">
  <line x2="88.4062" stroke-width="1.728" stroke-linecap="round" x1="88.4014" y1="33.4666" stroke="black" y2="28.0032"/>
 </g>
 <g partID="854217110">
  <line x2="81.2062" stroke-width="1.728" stroke-linecap="round" x1="81.2014" y1="33.4666" stroke="black" y2="28.0032"/>
 </g>
 <g partID="854217140">
  <line x2="74.0062" stroke-width="1.728" stroke-linecap="round" x1="74.0014" y1="33.4666" stroke="black" y2="28.0032"/>
 </g>
 <g partID="854217170">
  <line x2="66.8062" stroke-width="1.728" stroke-linecap="round" x1="66.8014" y1="33.4666" stroke="black" y2="28.0032"/>
 </g>
 <g partID="854217200">
  <line x2="59.6062" stroke-width="1.728" stroke-linecap="round" x1="59.6014" y1="33.4666" stroke="black" y2="28.0032"/>
 </g>
</svg>
