<?xml version='1.0' encoding='UTF-8' standalone='no'?>
<!-- Created with Fritzing (http://www.fritzing.org/) -->
<svg xmlns="http://www.w3.org/2000/svg"  viewBox="0 0 141.787 88.4203" width="1.96926in" baseProfile="tiny" x="0in" height="1.22806in" xmlns:svg="http://www.w3.org/2000/svg" version="1.2" y="0in">
 <g transform="matrix(-1, 0, 0, 1, 141.787, 0)">
  <g partID="57680">
   <g  id="board">
    <rect stroke-width="0.5"  stroke="black" fill="none" width="141.211" id="boardoutline" fill-opacity="0.5" height="87.8443" x="0.288" y="0.288"/>
   </g>
  </g>
  <g partID="854144740">
   <g transform="translate(53.5594,0.838775)">
    <g  id="copper0">
     <circle stroke-width="1.44" cx="6.048"  stroke="black" fill="black" cy="25.7896" id="connector0pad" connectorname="1" r="1.7348"/>
     <path stroke-width="0.72"  d="m6.048,21.6a2.0948,2.0948,0,0,1,2.0948,2.0948l0,4.18961a2.0948,2.0948,0,0,1,-2.0948,2.0948l0,0a2.0948,2.0948,0,0,1,-2.0948,-2.0948l0,-4.18961a2.0948,2.0948,0,0,1,2.0948,-2.0948l0,0zM4.6732,25.7896a1.3748,1.3748,0,1,0,2.74961,0,1.3748,1.3748,0,1,0,-2.74961,0z" stroke="black" fill="black"/>
     <circle stroke-width="1.44" cx="13.248"  stroke="black" fill="black" cy="25.7896" id="connector1pad" connectorname="2" r="1.7348"/>
     <path stroke-width="0.72"  d="m13.248,21.6a2.0948,2.0948,0,0,1,2.0948,2.0948l0,4.18961a2.0948,2.0948,0,0,1,-2.0948,2.0948l0,0a2.0948,2.0948,0,0,1,-2.0948,-2.0948l0,-4.18961a2.0948,2.0948,0,0,1,2.0948,-2.0948l0,0zM11.8732,25.7896a1.3748,1.3748,0,1,0,2.74961,0,1.3748,1.3748,0,1,0,-2.74961,0z" stroke="black" fill="black"/>
     <circle stroke-width="1.44" cx="49.248"  stroke="black" fill="black" cy="25.7896" id="connector6pad" connectorname="7" r="1.7348"/>
     <path stroke-width="0.72"  d="m49.248,21.6a2.0948,2.0948,0,0,1,2.0948,2.0948l0,4.18961a2.0948,2.0948,0,0,1,-2.0948,2.0948l0,0a2.0948,2.0948,0,0,1,-2.0948,-2.0948l0,-4.18961a2.0948,2.0948,0,0,1,2.0948,-2.0948l0,0zM47.8732,25.7896a1.3748,1.3748,0,1,0,2.74961,0,1.3748,1.3748,0,1,0,-2.74961,0z" stroke="black" fill="black"/>
     <circle stroke-width="1.44" cx="56.448"  stroke="black" fill="black" cy="25.7896" id="connector7pad" connectorname="8" r="1.7348"/>
     <path stroke-width="0.72"  d="m56.448,21.6a2.0948,2.0948,0,0,1,2.0948,2.0948l0,4.18961a2.0948,2.0948,0,0,1,-2.0948,2.0948l0,0a2.0948,2.0948,0,0,1,-2.0948,-2.0948l0,-4.18961a2.0948,2.0948,0,0,1,2.0948,-2.0948l0,0zM55.0732,25.7896a1.3748,1.3748,0,1,0,2.74961,0,1.3748,1.3748,0,1,0,-2.74961,0z" stroke="black" fill="black"/>
     <circle stroke-width="1.44" cx="20.448"  stroke="black" fill="black" cy="25.7896" id="connector2pad" connectorname="3" r="1.7348"/>
     <path stroke-width="0.72"  d="m20.448,21.6a2.0948,2.0948,0,0,1,2.0948,2.0948l0,4.18961a2.0948,2.0948,0,0,1,-2.0948,2.0948l0,0a2.0948,2.0948,0,0,1,-2.0948,-2.0948l0,-4.18961a2.0948,2.0948,0,0,1,2.0948,-2.0948l0,0zM19.0732,25.7896a1.3748,1.3748,0,1,0,2.74961,0,1.3748,1.3748,0,1,0,-2.74961,0z" stroke="black" fill="black"/>
     <circle stroke-width="1.44" cx="27.648"  stroke="black" fill="black" cy="25.7896" id="connector3pad" connectorname="4" r="1.7348"/>
     <path stroke-width="0.72"  d="m27.648,21.6a2.0948,2.0948,0,0,1,2.0948,2.0948l0,4.18961a2.0948,2.0948,0,0,1,-2.0948,2.0948l0,0a2.0948,2.0948,0,0,1,-2.0948,-2.0948l0,-4.18961a2.0948,2.0948,0,0,1,2.0948,-2.0948l0,0zM26.2732,25.7896a1.3748,1.3748,0,1,0,2.74961,0,1.3748,1.3748,0,1,0,-2.74961,0z" stroke="black" fill="black"/>
     <circle stroke-width="1.44" cx="42.048"  stroke="black" fill="black" cy="25.7896" id="connector5pad" connectorname="6" r="1.7348"/>
     <path stroke-width="0.72"  d="m42.048,21.6a2.0948,2.0948,0,0,1,2.0948,2.0948l0,4.18961a2.0948,2.0948,0,0,1,-2.0948,2.0948l0,0a2.0948,2.0948,0,0,1,-2.0948,-2.0948l0,-4.18961a2.0948,2.0948,0,0,1,2.0948,-2.0948l0,0zM40.6732,25.7896a1.3748,1.3748,0,1,0,2.74961,0,1.3748,1.3748,0,1,0,-2.74961,0z" stroke="black" fill="black"/>
     <circle stroke-width="1.44" cx="34.848"  stroke="black" fill="black" cy="25.7896" id="connector4pad" connectorname="5" r="1.7348"/>
     <path stroke-width="0.72"  d="m34.848,21.6a2.0948,2.0948,0,0,1,2.0948,2.0948l0,4.18961a2.0948,2.0948,0,0,1,-2.0948,2.0948l0,0a2.0948,2.0948,0,0,1,-2.0948,-2.0948l0,-4.18961a2.0948,2.0948,0,0,1,2.0948,-2.0948l0,0zM33.4732,25.7896a1.3748,1.3748,0,1,0,2.74961,0,1.3748,1.3748,0,1,0,-2.74961,0z" stroke="black" fill="black"/>
     <circle stroke-width="1.44" cx="56.448"  stroke="black" fill="black" cy="4.18961" id="connector8pad" connectorname="9" r="1.7348"/>
     <path stroke-width="0.72"  d="m56.448,0a2.0948,2.0948,0,0,1,2.0948,2.0948l0,4.18961a2.0948,2.0948,0,0,1,-2.0948,2.0948l0,0a2.0948,2.0948,0,0,1,-2.0948,-2.0948l0,-4.18961a2.0948,2.0948,0,0,1,2.0948,-2.0948l0,0zM55.0732,4.18961a1.3748,1.3748,0,1,0,2.74961,0,1.3748,1.3748,0,1,0,-2.74961,0z" stroke="black" fill="black"/>
     <circle stroke-width="1.44" cx="49.248"  stroke="black" fill="black" cy="4.18961" id="connector9pad" connectorname="10" r="1.7348"/>
     <path stroke-width="0.72"  d="m49.248,0a2.0948,2.0948,0,0,1,2.0948,2.0948l0,4.18961a2.0948,2.0948,0,0,1,-2.0948,2.0948l0,0a2.0948,2.0948,0,0,1,-2.0948,-2.0948l0,-4.18961a2.0948,2.0948,0,0,1,2.0948,-2.0948l0,0zM47.8732,4.18961a1.3748,1.3748,0,1,0,2.74961,0,1.3748,1.3748,0,1,0,-2.74961,0z" stroke="black" fill="black"/>
     <circle stroke-width="1.44" cx="42.048"  stroke="black" fill="black" cy="4.18961" id="connector10pad" connectorname="11" r="1.7348"/>
     <path stroke-width="0.72"  d="m42.048,0a2.0948,2.0948,0,0,1,2.0948,2.0948l0,4.18961a2.0948,2.0948,0,0,1,-2.0948,2.0948l0,0a2.0948,2.0948,0,0,1,-2.0948,-2.0948l0,-4.18961a2.0948,2.0948,0,0,1,2.0948,-2.0948l0,0zM40.6732,4.18961a1.3748,1.3748,0,1,0,2.74961,0,1.3748,1.3748,0,1,0,-2.74961,0z" stroke="black" fill="black"/>
     <circle stroke-width="1.44" cx="34.848"  stroke="black" fill="black" cy="4.18961" id="connector11pad" connectorname="12" r="1.7348"/>
     <path stroke-width="0.72"  d="m34.848,0a2.0948,2.0948,0,0,1,2.0948,2.0948l0,4.18961a2.0948,2.0948,0,0,1,-2.0948,2.0948l0,0a2.0948,2.0948,0,0,1,-2.0948,-2.0948l0,-4.18961a2.0948,2.0948,0,0,1,2.0948,-2.0948l0,0zM33.4732,4.18961a1.3748,1.3748,0,1,0,2.74961,0,1.3748,1.3748,0,1,0,-2.74961,0z" stroke="black" fill="black"/>
     <circle stroke-width="1.44" cx="27.648"  stroke="black" fill="black" cy="4.18961" id="connector12pad" connectorname="13" r="1.7348"/>
     <path stroke-width="0.72"  d="m27.648,0a2.0948,2.0948,0,0,1,2.0948,2.0948l0,4.18961a2.0948,2.0948,0,0,1,-2.0948,2.0948l0,0a2.0948,2.0948,0,0,1,-2.0948,-2.0948l0,-4.18961a2.0948,2.0948,0,0,1,2.0948,-2.0948l0,0zM26.2732,4.18961a1.3748,1.3748,0,1,0,2.74961,0,1.3748,1.3748,0,1,0,-2.74961,0z" stroke="black" fill="black"/>
     <circle stroke-width="1.44" cx="20.448"  stroke="black" fill="black" cy="4.18961" id="connector13pad" connectorname="14" r="1.7348"/>
     <path stroke-width="0.72"  d="m20.448,0a2.0948,2.0948,0,0,1,2.0948,2.0948l0,4.18961a2.0948,2.0948,0,0,1,-2.0948,2.0948l0,0a2.0948,2.0948,0,0,1,-2.0948,-2.0948l0,-4.18961a2.0948,2.0948,0,0,1,2.0948,-2.0948l0,0zM19.0732,4.18961a1.3748,1.3748,0,1,0,2.74961,0,1.3748,1.3748,0,1,0,-2.74961,0z" stroke="black" fill="black"/>
     <circle stroke-width="1.44" cx="13.248"  stroke="black" fill="black" cy="4.18961" id="connector14pad" connectorname="15" r="1.7348"/>
     <path stroke-width="0.72"  d="m13.248,0a2.0948,2.0948,0,0,1,2.0948,2.0948l0,4.18961a2.0948,2.0948,0,0,1,-2.0948,2.0948l0,0a2.0948,2.0948,0,0,1,-2.0948,-2.0948l0,-4.18961a2.0948,2.0948,0,0,1,2.0948,-2.0948l0,0zM11.8732,4.18961a1.3748,1.3748,0,1,0,2.74961,0,1.3748,1.3748,0,1,0,-2.74961,0z" stroke="black" fill="black"/>
     <circle stroke-width="1.44" cx="6.048"  stroke="black" fill="black" cy="4.18961" id="connector15pad" connectorname="16" r="1.7348"/>
     <path stroke-width="0.72"  d="m6.048,0a2.0948,2.0948,0,0,1,2.0948,2.0948l0,4.18961a2.0948,2.0948,0,0,1,-2.0948,2.0948l0,0a2.0948,2.0948,0,0,1,-2.0948,-2.0948l0,-4.18961a2.0948,2.0948,0,0,1,2.0948,-2.0948l0,0zM4.6732,4.18961a1.3748,1.3748,0,1,0,2.74961,0,1.3748,1.3748,0,1,0,-2.74961,0z" stroke="black" fill="black"/>
    </g>
   </g>
  </g>
  <g partID="59940">
   <g transform="translate(3.60249,88.3682)">
    <g transform="matrix(0,-1,1,0,0,0)">
     <g  id="copper0">
      <circle stroke-width="1.944" cx="28.2376"  stroke="black" fill="black" cy="11.5132" id="connector6pad" connectorname="5" r="2.052"/>
      <path stroke-width="0.72"  d="m25.5736,8.84919,5.32801,0,0,5.32799,-5.32801,0,0,-5.32799zM26.7976,11.5132a1.44,1.44,0,1,0,2.88,0,1.44,1.44,0,1,0,-2.88,0z" stroke="black" fill="black"/>
      <circle stroke-width="1.944" cx="36.0896"  stroke="black" fill="black" cy="11.5132" id="connector5pad" connectorname="4" r="2.052"/>
      <circle stroke-width="1.944" cx="43.9416"  stroke="black" fill="black" cy="11.5132" id="connector4pad" connectorname="3" r="2.052"/>
      <circle stroke-width="1.944" cx="51.7936"  stroke="black" fill="black" cy="11.5132" id="connector3pad" connectorname="2" r="2.052"/>
      <circle stroke-width="1.944" cx="59.6456"  stroke="black" fill="black" cy="11.5132" id="connector1pad" connectorname="1" r="2.052"/>
      <circle stroke-width="1.944" cx="32.1778"  stroke="black" fill="black" cy="3.4628" id="connector10pad" connectorname="9" r="2.052"/>
      <circle stroke-width="1.944" cx="40.0298"  stroke="black" fill="black" cy="3.4628" id="connector9pad" connectorname="8" r="2.052"/>
      <circle stroke-width="1.944" cx="47.8534"  stroke="black" fill="black" cy="3.4628" id="connector8pad" connectorname="7" r="2.052"/>
      <circle stroke-width="1.944" cx="55.7054"  stroke="black" fill="black" cy="3.4628" id="connector7pad" connectorname="6" r="2.052"/>
      <circle stroke-width="3.24" cx="8.50848"  stroke="black" fill="black" cy="7.48799" id="connector0pad" connectorname="G1" r="5.94001"/>
      <circle stroke-width="3.24" cx="79.3747"  stroke="black" fill="black" cy="7.48799" id="connector2pad" connectorname="G2" r="5.94001"/>
     </g>
    </g>
   </g>
  </g>
  <g partID="60080">
   <g transform="translate(20.0001,81.5626)">
    <g transform="matrix(0,-1,1,0,0,0)">
     <g  id="copper0">
      <circle stroke-width="1.944" cx="3.6"  stroke="black" fill="black" cy="10.8" id="connector16pad" r="1.908"/>
      <rect stroke-width="1.944"  stroke="black" fill="black" width="3.814" x="1.692" height="3.816" y="8.892"/>
      <circle stroke-width="1.944" cx="3.6"  stroke="black" fill="black" cy="18" id="connector17pad" r="1.908"/>
      <circle stroke-width="1.944" cx="3.6"  stroke="black" fill="black" cy="25.2" id="connector18pad" r="1.908"/>
      <circle stroke-width="1.944" cx="3.6"  stroke="black" fill="black" cy="32.4" id="connector19pad" r="1.908"/>
      <circle stroke-width="1.944" cx="3.6"  stroke="black" fill="black" cy="39.6" id="connector20pad" r="1.908"/>
      <circle stroke-width="1.944" cx="3.6"  stroke="black" fill="black" cy="46.8" id="connector21pad" r="1.908"/>
      <circle stroke-width="1.944" cx="3.6"  stroke="black" fill="black" cy="54" id="connector22pad" r="1.908"/>
      <circle stroke-width="1.944" cx="3.6"  stroke="black" fill="black" cy="61.2" id="connector23pad" r="1.908"/>
      <circle stroke-width="1.944" cx="3.6"  stroke="black" fill="black" cy="68.4" id="connector24pad" r="1.908"/>
      <circle stroke-width="1.944" cx="3.6"  stroke="black" fill="black" cy="75.6" id="connector25pad" r="1.908"/>
      <circle stroke-width="1.944" cx="3.6"  stroke="black" fill="black" cy="82.8" id="connector26pad" r="1.908"/>
      <circle stroke-width="1.944" cx="3.6"  stroke="black" fill="black" cy="90" id="connector27pad" r="1.908"/>
      <circle stroke-width="1.944" cx="3.6"  stroke="black" fill="black" cy="97.2" id="connector28pad" r="1.908"/>
      <circle stroke-width="1.944" cx="3.6"  stroke="black" fill="black" cy="104.4" id="connector29pad" r="1.908"/>
      <circle stroke-width="1.944" cx="3.6"  stroke="black" fill="black" cy="111.6" id="connector30pad" r="1.908"/>
      <circle stroke-width="1.944" cx="46.8"  stroke="black" fill="black" cy="10.8" id="connector31pad" r="1.908"/>
      <circle stroke-width="1.944" cx="46.8"  stroke="black" fill="black" cy="18" id="connector32pad" r="1.908"/>
      <circle stroke-width="1.944" cx="46.8"  stroke="black" fill="black" cy="25.2" id="connector33pad" r="1.908"/>
      <circle stroke-width="1.944" cx="46.8"  stroke="black" fill="black" cy="32.4" id="connector34pad" r="1.908"/>
      <circle stroke-width="1.944" cx="46.8"  stroke="black" fill="black" cy="39.6" id="connector35pad" r="1.908"/>
      <circle stroke-width="1.944" cx="46.8"  stroke="black" fill="black" cy="46.8" id="connector36pad" r="1.908"/>
      <circle stroke-width="1.944" cx="46.8"  stroke="black" fill="black" cy="54" id="connector37pad" r="1.908"/>
      <circle stroke-width="1.944" cx="46.8"  stroke="black" fill="black" cy="61.2" id="connector38pad" r="1.908"/>
      <circle stroke-width="1.944" cx="46.8"  stroke="black" fill="black" cy="68.4" id="connector39pad" r="1.908"/>
      <circle stroke-width="1.944" cx="46.8"  stroke="black" fill="black" cy="75.6" id="connector40pad" r="1.908"/>
      <circle stroke-width="1.944" cx="46.8"  stroke="black" fill="black" cy="82.8" id="connector41pad" r="1.908"/>
      <circle stroke-width="1.944" cx="46.8"  stroke="black" fill="black" cy="90" id="connector42pad" r="1.908"/>
      <circle stroke-width="1.944" cx="46.8"  stroke="black" fill="black" cy="97.2" id="connector43pad" r="1.908"/>
      <circle stroke-width="1.944" cx="46.8"  stroke="black" fill="black" cy="104.4" id="connector44pad" r="1.908"/>
      <circle stroke-width="1.944" cx="46.8"  stroke="black" fill="black" cy="111.6" id="connector45pad" r="1.908"/>
     </g>
    </g>
   </g>
  </g>
  <g partID="854211000">
   <g transform="translate(2.46677,18.6973)">
    <g  id="copper0">
     <circle stroke-width="1.57039" cx="3.01732"  stroke="black" fill="black" cy="3.01732" id="connector0pin" r="0.992124"/>
    </g>
   </g>
  </g>
  <g partID="854211300">
   <g transform="translate(35.2988,37.7053)">
    <g  id="copper0">
     <circle stroke-width="1.57039" cx="3.01732"  stroke="black" fill="black" cy="3.01732" id="connector0pin" r="0.992124"/>
    </g>
   </g>
  </g>
  <g partID="854211400">
   <g transform="translate(24.9308,25.6093)">
    <g  id="copper0">
     <circle stroke-width="1.57039" cx="3.01732"  stroke="black" fill="black" cy="3.01732" id="connector0pin" r="0.992124"/>
    </g>
   </g>
  </g>
 </g>
</svg>
